<svg xmlns="http://www.w3.org/2000/svg" xmlns:xlink="http://www.w3.org/1999/xlink" width="265" height="431.95" viewBox="0 0 265 431.95">
  <defs>
    <clipPath id="clip-path">
      <path id="Trazado_19290" data-name="Trazado 19290" d="M518.293,622.558H422.265A11.646,11.646,0,0,1,410.6,610.893V514.865A11.646,11.646,0,0,1,422.265,503.2h96.028a11.646,11.646,0,0,1,11.665,11.665v96.028A11.646,11.646,0,0,1,518.293,622.558Z" transform="translate(-410.6 -503.2)"/>
    </clipPath>
    <clipPath id="clip-path-3">
      <rect id="Rectángulo_3183" data-name="Rectángulo 3183" width="221.322" height="11.769"/>
    </clipPath>
  </defs>
  <g id="Grupo_13267" data-name="Grupo 13267" transform="translate(857 2306.95)">
    <rect id="Rectángulo_3316" data-name="Rectángulo 3316" width="265" height="298" rx="7" transform="translate(-857 -2195)" fill="#e8eef3"/>
    <circle id="Elipse_841" data-name="Elipse 841" cx="111.9" cy="111.9" r="111.9" transform="translate(-836.3 -2306.95)" fill="#ff9100"/>
    <circle id="Elipse_853" data-name="Elipse 853" cx="106.3" cy="106.3" r="106.3" transform="translate(-830.7 -2301.35)" fill="#fff"/>
    <text id="Señalizar_las_áreas_de_trabajo" data-name="Señalizar las áreas 
de trabajo" transform="translate(-836 -2061)" fill="#002b45" font-size="16" font-family="Helvetica-Bold, Helvetica" font-weight="700"><tspan x="40.395" y="12">Señalizar las áreas </tspan><tspan x="73.77" y="30">de trabajo</tspan></text>
    <text id="Espacios_rotulados._" data-name="Espacios rotulados. " transform="translate(-836 -2001)" fill="#00223d" font-size="16" font-family="Helvetica"><tspan x="42.184" y="12">Espacios rotulados. </tspan></text>
    <line id="Línea_233" data-name="Línea 233" x2="218" transform="translate(-833.5 -2011.5)" fill="none" stroke="#707070" stroke-width="3" opacity="0.2"/>
    <rect id="Rectángulo_3328" data-name="Rectángulo 3328" width="115" height="39" rx="3" transform="translate(-782 -1914)" fill="#ff9100"/>
    <text id="PASO_06" data-name="PASO 06" transform="translate(-782 -1904)" fill="#fff" font-size="16" font-family="Helvetica-Bold, Helvetica" font-weight="700"><tspan x="23.797" y="12">PASO 06</tspan></text>
    <g id="Grupo_13261" data-name="Grupo 13261" transform="translate(-152 -53)">
      <circle id="Elipse_810" data-name="Elipse 810" cx="100.345" cy="100.345" r="100.345" transform="translate(-672 -2242)" fill="#fff"/>
      <g id="Grupo_13184" data-name="Grupo 13184" transform="translate(-630.86 -2201.224)">
        <g id="Grupo_13173" data-name="Grupo 13173" transform="translate(0 0)">
          <g id="Grupo_13166" data-name="Grupo 13166" clip-path="url(#clip-path)">
            <path id="Trazado_19289" data-name="Trazado 19289" d="M518.293,622.558H422.265A11.646,11.646,0,0,1,410.6,610.893V514.865A11.646,11.646,0,0,1,422.265,503.2h96.028a11.646,11.646,0,0,1,11.665,11.665v96.028A11.646,11.646,0,0,1,518.293,622.558Z" transform="translate(-410.6 -503.2)" fill="#fff"/>
          </g>
          <g id="Grupo_13169" data-name="Grupo 13169" clip-path="url(#clip-path)">
            <g id="Grupo_13167" data-name="Grupo 13167" transform="translate(-50.93 -6.562)" clip-path="url(#clip-path-3)">
              <rect id="Rectángulo_3169" data-name="Rectángulo 3169" width="14.477" height="14.477" transform="translate(198.55 5.941) rotate(-45)" fill="#65b742"/>
              <rect id="Rectángulo_3170" data-name="Rectángulo 3170" width="14.477" height="14.477" transform="translate(191.18 5.997) rotate(-45)" fill="#fff"/>
              <rect id="Rectángulo_3171" data-name="Rectángulo 3171" width="14.477" height="14.477" transform="translate(183.883 5.983) rotate(-45)" fill="#65b742"/>
              <rect id="Rectángulo_3172" data-name="Rectángulo 3172" width="14.477" height="14.477" transform="translate(176.587 5.971) rotate(-45)" fill="#65b742"/>
              <rect id="Rectángulo_3173" data-name="Rectángulo 3173" width="14.477" height="14.477" transform="translate(169.29 5.953) rotate(-45)" fill="#65b742"/>
              <rect id="Rectángulo_3174" data-name="Rectángulo 3174" width="14.477" height="14.477" transform="translate(161.993 5.938) rotate(-45)" fill="#65b742"/>
              <rect id="Rectángulo_3175" data-name="Rectángulo 3175" width="14.477" height="14.477" transform="translate(154.623 5.997) rotate(-45)" fill="#fff"/>
              <rect id="Rectángulo_3176" data-name="Rectángulo 3176" width="14.477" height="14.477" transform="translate(147.326 5.982) rotate(-45)" fill="#65b742"/>
              <rect id="Rectángulo_3177" data-name="Rectángulo 3177" width="14.477" height="14.477" transform="translate(140.03 5.968) rotate(-45)" fill="#fff"/>
              <rect id="Rectángulo_3178" data-name="Rectángulo 3178" width="14.477" height="14.477" transform="translate(132.733 5.953) rotate(-45)" fill="#65b742"/>
              <rect id="Rectángulo_3179" data-name="Rectángulo 3179" width="14.477" height="14.477" transform="translate(125.436 5.938) rotate(-45)" fill="#fff"/>
              <rect id="Rectángulo_3180" data-name="Rectángulo 3180" width="14.477" height="14.477" transform="translate(118.066 5.997) rotate(-45)" fill="#65b742"/>
              <rect id="Rectángulo_3181" data-name="Rectángulo 3181" width="14.477" height="14.477" transform="translate(110.769 5.982) rotate(-45)" fill="#fff"/>
              <rect id="Rectángulo_3182" data-name="Rectángulo 3182" width="14.477" height="14.477" transform="translate(103.473 5.967) rotate(-45)" fill="#65b742"/>
            </g>
            <g id="Grupo_13168" data-name="Grupo 13168" transform="translate(-50.93 -6.562)" clip-path="url(#clip-path-3)">
              <rect id="Rectángulo_3184" data-name="Rectángulo 3184" width="14.477" height="14.477" transform="translate(96.805 5.963) rotate(-45)" fill="#fff"/>
              <rect id="Rectángulo_3185" data-name="Rectángulo 3185" width="14.477" height="14.477" transform="translate(89.509 5.948) rotate(-45)" fill="#65b742"/>
              <rect id="Rectángulo_3186" data-name="Rectángulo 3186" width="14.477" height="14.477" transform="translate(82.212 5.934) rotate(-45)" fill="#fff"/>
              <rect id="Rectángulo_3187" data-name="Rectángulo 3187" width="14.477" height="14.477" transform="translate(74.842 5.993) rotate(-45)" fill="#65b742"/>
              <rect id="Rectángulo_3188" data-name="Rectángulo 3188" width="14.477" height="14.477" transform="translate(67.545 5.978) rotate(-45)" fill="#fff"/>
              <rect id="Rectángulo_3189" data-name="Rectángulo 3189" width="14.477" height="14.477" transform="translate(60.248 5.963) rotate(-45)" fill="#65b742"/>
              <rect id="Rectángulo_3190" data-name="Rectángulo 3190" width="14.477" height="14.477" transform="translate(52.952 5.948) rotate(-45)" fill="#fff"/>
              <rect id="Rectángulo_3191" data-name="Rectángulo 3191" width="14.477" height="14.477" transform="translate(45.655 5.933) rotate(-45)" fill="#65b742"/>
              <rect id="Rectángulo_3192" data-name="Rectángulo 3192" width="14.477" height="14.477" transform="translate(38.285 5.992) rotate(-45)" fill="#fff"/>
              <rect id="Rectángulo_3193" data-name="Rectángulo 3193" width="14.477" height="14.477" transform="translate(30.988 5.978) rotate(-45)" fill="#65b742"/>
              <rect id="Rectángulo_3194" data-name="Rectángulo 3194" width="14.477" height="14.477" transform="translate(23.691 5.963) rotate(-45)" fill="#65b742"/>
              <rect id="Rectángulo_3195" data-name="Rectángulo 3195" width="14.477" height="14.477" transform="translate(16.395 5.948) rotate(-45)" fill="#fff"/>
              <rect id="Rectángulo_3196" data-name="Rectángulo 3196" width="14.477" height="14.477" transform="translate(9.098 5.933) rotate(-45)" fill="#65b742"/>
              <rect id="Rectángulo_3197" data-name="Rectángulo 3197" width="14.477" height="14.477" transform="translate(1.728 5.992) rotate(-45)" fill="#fff"/>
            </g>
          </g>
          <g id="Grupo_13172" data-name="Grupo 13172" clip-path="url(#clip-path)">
            <g id="Grupo_13170" data-name="Grupo 13170" transform="translate(-50.93 113.421)" clip-path="url(#clip-path-3)">
              <rect id="Rectángulo_3199" data-name="Rectángulo 3199" width="14.477" height="14.477" transform="translate(198.494 5.856) rotate(-45)" fill="#65b742"/>
              <rect id="Rectángulo_3200" data-name="Rectángulo 3200" width="14.477" height="14.477" transform="translate(191.124 5.912) rotate(-45)" fill="#fff"/>
              <rect id="Rectángulo_3201" data-name="Rectángulo 3201" width="14.477" height="14.477" transform="translate(183.827 5.897) rotate(-45)" fill="#65b742"/>
              <rect id="Rectángulo_3202" data-name="Rectángulo 3202" width="14.477" height="14.477" transform="translate(176.53 5.886) rotate(-45)" fill="#65b742"/>
              <rect id="Rectángulo_3203" data-name="Rectángulo 3203" width="14.477" height="14.477" transform="translate(169.234 5.868) rotate(-45)" fill="#65b742"/>
              <rect id="Rectángulo_3204" data-name="Rectángulo 3204" width="14.477" height="14.477" transform="translate(161.937 5.853) rotate(-45)" fill="#65b742"/>
              <rect id="Rectángulo_3205" data-name="Rectángulo 3205" width="14.477" height="14.477" transform="translate(154.567 5.912) rotate(-45)" fill="#fff"/>
              <rect id="Rectángulo_3206" data-name="Rectángulo 3206" width="14.477" height="14.477" transform="translate(147.27 5.897) rotate(-45)" fill="#65b742"/>
              <rect id="Rectángulo_3207" data-name="Rectángulo 3207" width="14.477" height="14.477" transform="translate(139.974 5.883) rotate(-45)" fill="#fff"/>
              <rect id="Rectángulo_3208" data-name="Rectángulo 3208" width="14.477" height="14.477" transform="translate(132.677 5.868) rotate(-45)" fill="#65b742"/>
              <rect id="Rectángulo_3209" data-name="Rectángulo 3209" width="14.477" height="14.477" transform="translate(125.381 5.853) rotate(-45)" fill="#fff"/>
              <rect id="Rectángulo_3210" data-name="Rectángulo 3210" width="14.477" height="14.477" transform="translate(118.01 5.912) rotate(-45)" fill="#65b742"/>
              <rect id="Rectángulo_3211" data-name="Rectángulo 3211" width="14.477" height="14.477" transform="translate(110.714 5.897) rotate(-45)" fill="#fff"/>
              <rect id="Rectángulo_3212" data-name="Rectángulo 3212" width="14.477" height="14.477" transform="translate(103.417 5.883) rotate(-45)" fill="#65b742"/>
            </g>
            <g id="Grupo_13171" data-name="Grupo 13171" transform="translate(-50.93 113.421)" clip-path="url(#clip-path-3)">
              <rect id="Rectángulo_3214" data-name="Rectángulo 3214" width="14.477" height="14.477" transform="translate(96.75 5.878) rotate(-45)" fill="#fff"/>
              <rect id="Rectángulo_3215" data-name="Rectángulo 3215" width="14.477" height="14.477" transform="translate(89.453 5.864) rotate(-45)" fill="#65b742"/>
              <rect id="Rectángulo_3216" data-name="Rectángulo 3216" width="14.477" height="14.477" transform="translate(82.156 5.849) rotate(-45)" fill="#fff"/>
              <rect id="Rectángulo_3217" data-name="Rectángulo 3217" width="14.477" height="14.477" transform="translate(74.786 5.908) rotate(-45)" fill="#65b742"/>
              <rect id="Rectángulo_3218" data-name="Rectángulo 3218" width="14.477" height="14.477" transform="translate(67.489 5.893) rotate(-45)" fill="#fff"/>
              <rect id="Rectángulo_3219" data-name="Rectángulo 3219" width="14.477" height="14.477" transform="translate(60.193 5.878) rotate(-45)" fill="#65b742"/>
              <rect id="Rectángulo_3220" data-name="Rectángulo 3220" width="14.477" height="14.477" transform="translate(52.896 5.863) rotate(-45)" fill="#fff"/>
              <rect id="Rectángulo_3221" data-name="Rectángulo 3221" width="14.477" height="14.477" transform="translate(45.599 5.849) rotate(-45)" fill="#65b742"/>
              <rect id="Rectángulo_3222" data-name="Rectángulo 3222" width="14.477" height="14.477" transform="translate(38.229 5.908) rotate(-45)" fill="#fff"/>
              <rect id="Rectángulo_3223" data-name="Rectángulo 3223" width="14.477" height="14.477" transform="translate(30.932 5.893) rotate(-45)" fill="#65b742"/>
              <rect id="Rectángulo_3224" data-name="Rectángulo 3224" width="14.477" height="14.477" transform="translate(23.636 5.878) rotate(-45)" fill="#65b742"/>
              <rect id="Rectángulo_3225" data-name="Rectángulo 3225" width="14.477" height="14.477" transform="translate(16.339 5.863) rotate(-45)" fill="#fff"/>
              <rect id="Rectángulo_3226" data-name="Rectángulo 3226" width="14.477" height="14.477" transform="translate(9.042 5.849) rotate(-45)" fill="#65b742"/>
              <rect id="Rectángulo_3227" data-name="Rectángulo 3227" width="14.477" height="14.477" transform="translate(1.672 5.908) rotate(-45)" fill="#fff"/>
            </g>
          </g>
        </g>
        <g id="Grupo_13183" data-name="Grupo 13183" transform="translate(16.039 41.14)">
          <g id="Grupo_13182" data-name="Grupo 13182">
            <g id="Grupo_13177" data-name="Grupo 13177">
              <g id="Grupo_13174" data-name="Grupo 13174">
                <path id="Trazado_19293" data-name="Trazado 19293" d="M439.065,547.283a4.583,4.583,0,1,1-4.583-4.583A4.556,4.556,0,0,1,439.065,547.283Z" transform="translate(-425.838 -542.7)" fill="#65b742"/>
                <path id="Trazado_19294" data-name="Trazado 19294" d="M432.1,589.972H430.95a1.266,1.266,0,0,1-1.25-1.25V570.6h3.749v18.122A1.359,1.359,0,0,1,432.1,589.972Z" transform="translate(-425.846 -541.542)" fill="#65b742"/>
                <path id="Trazado_19295" data-name="Trazado 19295" d="M437.8,589.972H436.65a1.266,1.266,0,0,1-1.25-1.25V570.6h3.749v18.122A1.291,1.291,0,0,1,437.8,589.972Z" transform="translate(-425.61 -541.542)" fill="#65b742"/>
                <rect id="Rectángulo_3229" data-name="Rectángulo 3229" width="9.79" height="19.476" transform="translate(3.749 9.999)" fill="#65b742"/>
                <path id="Trazado_19296" data-name="Trazado 19296" d="M426,554.175v15.414a1.266,1.266,0,0,0,1.25,1.25h.417a1.266,1.266,0,0,0,1.25-1.25V555.425h11.248v14.165a1.266,1.266,0,0,0,1.25,1.25h.417a1.266,1.266,0,0,0,1.25-1.25V554.175a1.867,1.867,0,0,0-1.875-1.875h-13.54A1.836,1.836,0,0,0,426,554.175Z" transform="translate(-426 -542.301)" fill="#65b742"/>
              </g>
              <g id="Grupo_13175" data-name="Grupo 13175" transform="translate(35.099 0)">
                <circle id="Elipse_752" data-name="Elipse 752" cx="4.583" cy="4.583" r="4.583" transform="translate(3.958)" fill="#65b742"/>
                <path id="Trazado_19297" data-name="Trazado 19297" d="M465.7,589.972H464.55a1.266,1.266,0,0,1-1.25-1.25V570.6h3.749v18.122A1.359,1.359,0,0,1,465.7,589.972Z" transform="translate(-459.551 -541.542)" fill="#65b742"/>
                <path id="Trazado_19298" data-name="Trazado 19298" d="M471.5,589.972H470.35a1.266,1.266,0,0,1-1.25-1.25V570.6h3.749v18.122A1.359,1.359,0,0,1,471.5,589.972Z" transform="translate(-459.31 -541.542)" fill="#65b742"/>
                <rect id="Rectángulo_3230" data-name="Rectángulo 3230" width="9.79" height="19.476" transform="translate(3.645 9.999)" fill="#65b742"/>
                <path id="Trazado_19299" data-name="Trazado 19299" d="M459.7,554.175v15.414a1.266,1.266,0,0,0,1.25,1.25h.417a1.266,1.266,0,0,0,1.25-1.25V555.425h11.248v14.165a1.266,1.266,0,0,0,1.25,1.25h.417a1.266,1.266,0,0,0,1.25-1.25V554.175a1.867,1.867,0,0,0-1.875-1.875h-13.54A1.836,1.836,0,0,0,459.7,554.175Z" transform="translate(-459.7 -542.301)" fill="#65b742"/>
              </g>
              <g id="Grupo_13176" data-name="Grupo 13176" transform="translate(70.094)">
                <path id="Trazado_19300" data-name="Trazado 19300" d="M506.265,547.283a4.583,4.583,0,1,1-4.583-4.583A4.493,4.493,0,0,1,506.265,547.283Z" transform="translate(-493.142 -542.7)" fill="#65b742"/>
                <path id="Trazado_19301" data-name="Trazado 19301" d="M499.3,589.972H498.15a1.266,1.266,0,0,1-1.25-1.25V570.6h3.749v18.122A1.291,1.291,0,0,1,499.3,589.972Z" transform="translate(-493.151 -541.542)" fill="#65b742"/>
                <path id="Trazado_19302" data-name="Trazado 19302" d="M505.1,589.972H503.95a1.266,1.266,0,0,1-1.25-1.25V570.6h3.75v18.122A1.359,1.359,0,0,1,505.1,589.972Z" transform="translate(-492.91 -541.542)" fill="#65b742"/>
                <rect id="Rectángulo_3231" data-name="Rectángulo 3231" width="9.79" height="19.476" transform="translate(3.645 9.999)" fill="#65b742"/>
                <path id="Trazado_19303" data-name="Trazado 19303" d="M493.3,554.175v15.414a1.266,1.266,0,0,0,1.25,1.25h.417a1.266,1.266,0,0,0,1.25-1.25V555.425h11.248v14.165a1.266,1.266,0,0,0,1.25,1.25h.417a1.266,1.266,0,0,0,1.25-1.25V554.175a1.867,1.867,0,0,0-1.875-1.875h-13.54A1.836,1.836,0,0,0,493.3,554.175Z" transform="translate(-493.3 -542.301)" fill="#65b742"/>
              </g>
            </g>
            <g id="Grupo_13179" data-name="Grupo 13179" transform="translate(8.02 54.159)">
              <g id="Grupo_13178" data-name="Grupo 13178" transform="translate(3.125 1.771)">
                <rect id="Rectángulo_3232" data-name="Rectángulo 3232" width="28.85" height="1.042" fill="#65b742"/>
              </g>
              <path id="Trazado_19304" data-name="Trazado 19304" d="M433.7,596.991l4.062,2.291V594.7l-4.062,2.291,4.062,2.291V594.7Z" transform="translate(-433.7 -594.7)" fill="#65b742"/>
              <path id="Trazado_19305" data-name="Trazado 19305" d="M467.358,596.991,463.4,594.7v4.583l3.958-2.291L463.4,594.7v4.583Z" transform="translate(-432.467 -594.7)" fill="#65b742"/>
            </g>
            <text id="_2m" data-name="2m" transform="translate(20.862 50.717)" fill="#65b742" font-size="6" font-family="Helvetica"><tspan x="0" y="0">2m</tspan></text>
            <g id="Grupo_13181" data-name="Grupo 13181" transform="translate(44.264 54.159)">
              <g id="Grupo_13180" data-name="Grupo 13180" transform="translate(3.125 1.771)">
                <rect id="Rectángulo_3233" data-name="Rectángulo 3233" width="28.85" height="1.042" fill="#65b742"/>
              </g>
              <path id="Trazado_19306" data-name="Trazado 19306" d="M468.5,596.991l4.062,2.291V594.7l-4.062,2.291,4.062,2.291V594.7Z" transform="translate(-468.5 -594.7)" fill="#65b742"/>
              <path id="Trazado_19307" data-name="Trazado 19307" d="M502.162,596.991,498.1,594.7v4.583l4.062-2.291L498.1,594.7v4.583Z" transform="translate(-467.271 -594.7)" fill="#65b742"/>
            </g>
            <text id="_2m-2" data-name="2m" transform="translate(57.082 50.717)" fill="#65b742" font-size="6" font-family="Helvetica"><tspan x="0" y="0">2m</tspan></text>
          </g>
        </g>
        <g id="Grupo" transform="translate(20.865 11.921)">
          <text id="Mantenga_su_distancia" data-name="Mantenga su distancia" transform="translate(0 9)" fill="#65b742" font-size="10" font-family="BebasNeueBold, Bebas Neue"><tspan x="0" y="0">Mantenga su distancia</tspan></text>
          <text id="de_otras_personas" data-name="de otras personas" transform="translate(7.186 18.27)" fill="#65b742" font-size="10" font-family="BebasNeueBold, Bebas Neue"><tspan x="0" y="0">de otras personas</tspan></text>
        </g>
      </g>
    </g>
  </g>
</svg>
