<svg xmlns="http://www.w3.org/2000/svg" width="1853.123" height="269.522" viewBox="0 0 1853.123 269.522">
  <g id="Grupo_1427" data-name="Grupo 1427" transform="translate(-31.932 -58.536)">
    <path id="Sustracci贸n_2" data-name="Sustracci贸n 2" d="M2706.052,1631.021h-8.88v-28.363h-21.6v28.363h-8.88v-37.235h5.546v-14.951a54.861,54.861,0,0,1-16.372-7.377,55.415,55.415,0,0,1-21.581-27.707,55.226,55.226,0,1,1,95.6,15.658,55.493,55.493,0,0,1-13,12.047,54.856,54.856,0,0,1-16.369,7.377v14.953h5.542v37.235Zm-24.932-50.6v13.366h10.51v-13.367c-1.736.165-3.505.248-5.256.248s-3.52-.083-5.254-.248Zm5.254-101.143a46.259,46.259,0,1,0,46.3,46.259A46.333,46.333,0,0,0,2686.374,1479.277Zm-30.325,151.744H2522V1409.036h128.468l40.347,39.929v17.558h-8.88V1455.6H2644.2v-37.693H2530.88v204.24h125.168v8.871Zm-2.966-206.911h0v22.62h22.855l-22.855-22.62Zm2.966,173.65h-109.22v-8.872h109.22v8.871Zm-14.8-22.176h-94.425v-8.872h94.425v8.871Zm45.121-13.3a36.752,36.752,0,1,1,36.79-36.748A36.807,36.807,0,0,1,2686.374,1562.284Zm0-64.634a27.881,27.881,0,1,0,27.91,27.886A27.925,27.925,0,0,0,2686.374,1497.65Zm-61.311,55.756h-78.235v-8.872h78.235v8.871Zm-4.514-22.175h-73.722v-8.872h73.722v8.871Zm4.514-22.176h-78.235v-8.872h78.235v8.871Zm9.734-22.176h-87.97v-8.872h87.97v8.871Zm-28.526-22.176h-59.443v-8.872h59.443v8.871Z" transform="translate(-857 -1350)" fill="#b8e9f4" stroke="rgba(0,0,0,0)" stroke-miterlimit="10" stroke-width="1"/>
    <path id="Sustracci贸n_3" data-name="Sustracci贸n 3" d="M2850.425,1541.559h-7.632v-32.174h4.766v-12.92a47.036,47.036,0,0,1-14.072-6.375,47.289,47.289,0,1,1,52.439,0,47.034,47.034,0,0,1-14.069,6.375v12.921h4.763v32.173h-7.632V1517.05h-18.563v24.508Zm4.767-43.726v11.551h9.034v-11.551c-1.5.142-3.021.214-4.518.214s-3.02-.072-4.516-.214Zm4.516-87.4a39.972,39.972,0,1,0,39.8,39.972A39.929,39.929,0,0,0,2859.708,1410.438Zm-26.063,131.119H2718.432V1349.744h110.416l34.677,34.5v15.172h-7.632v-9.437h-32.43v-32.57h-97.4v176.48h107.581v7.665Zm-2.55-178.788h0v19.545h19.643Zm2.55,150.047h-93.874v-7.666h93.874v7.665Zm-12.716-19.161h-81.157v-7.667h81.157v7.666Zm38.779-11.492a31.758,31.758,0,1,1,31.621-31.754A31.719,31.719,0,0,1,2859.708,1482.163Zm0-55.849a24.091,24.091,0,1,0,23.989,24.095A24.065,24.065,0,0,0,2859.708,1426.315Zm-52.7,48.178h-67.242v-7.666h67.242v7.665Zm-3.879-19.162h-63.363v-7.666h63.363v7.665Zm3.879-19.162h-67.242V1428.5h67.242v7.665Zm8.366-19.162h-75.608v-7.666h75.608v7.665Zm-24.518-19.161h-51.09v-7.666h51.09v7.665Z" transform="translate(-2686 -1214)" fill="#b8e9f4" stroke="rgba(0,0,0,0)" stroke-miterlimit="10" stroke-width="1"/>
  </g>
</svg>
