<svg xmlns="http://www.w3.org/2000/svg" width="1494.575" height="509.427" viewBox="0 0 1494.575 509.427">
  <g id="Grupo_1428" data-name="Grupo 1428" transform="translate(-425.425 24.533)">
    <path id="Trazado_11108" data-name="Trazado 11108" d="M0,0H1494.575V509.427H0Z" transform="translate(425.425 -24.533)" fill="#92d4e3" opacity="0.992"/>
    <g id="Grupo_1427" data-name="Grupo 1427" transform="translate(476.432 86.963)">
      <path id="Sustracci贸n_2" data-name="Sustracci贸n 2" d="M85.971,103.985H81.823V90.7H71.736v13.286H67.587V86.543h2.59v-7a25.586,25.586,0,0,1-7.647-3.456,25.732,25.732,0,1,1,28.5,0,25.58,25.58,0,0,1-7.646,3.456v7h2.588v17.442Zm-11.646-23.7v6.261h4.91V80.281c-.811.077-1.638.116-2.456.116s-1.644-.039-2.454-.116ZM76.78,32.9A21.669,21.669,0,1,0,98.407,54.572,21.673,21.673,0,0,0,76.78,32.9ZM62.615,103.985H0V0H60.008L78.854,18.7v8.225H74.706V21.813H57.082V4.156H4.148V99.829H62.615v4.156ZM61.229,7.061h0v10.6H71.905L61.229,7.061ZM62.615,88.4H11.6V84.248H62.615V88.4ZM55.7,78.016H11.6V73.86H55.7v4.156Zm21.076-6.23A17.216,17.216,0,1,1,93.965,54.572,17.217,17.217,0,0,1,76.78,71.786Zm0-30.276A13.06,13.06,0,1,0,89.817,54.572,13.062,13.062,0,0,0,76.78,41.51ZM48.142,67.628H11.6V63.472H48.142v4.155ZM46.033,57.24H11.6V53.084H46.033V57.24Zm2.108-10.388H11.6V42.7H48.142v4.156Zm4.547-10.388H11.6V32.308H52.688v4.156ZM39.363,26.076H11.6V21.92H39.363v4.155Z" transform="translate(1255.568)" fill="#b8e9f4" stroke="rgba(0,0,0,0)" stroke-miterlimit="10" stroke-width="1"/>
      <path id="Sustracci贸n_3" data-name="Sustracci贸n 3" d="M71.838,104.814H67.684V87.233h2.594v-7.06A25.549,25.549,0,0,1,62.62,76.69a25.685,25.685,0,1,1,28.54,0A25.558,25.558,0,0,1,83.5,80.172v7.061H86.1v17.58H81.941V91.422h-10.1v13.392Zm2.594-23.893v6.312h4.917V80.921c-.817.078-1.644.117-2.459.117s-1.644-.039-2.458-.117ZM76.89,33.165A21.843,21.843,0,1,0,98.549,55.007,21.776,21.776,0,0,0,76.89,33.165ZM62.706,104.813H0V0H60.095L78.968,18.853v8.291H74.814V21.987H57.164V4.189H4.154v96.435H62.706v4.188Zm-1.388-97.7h0V17.8H72.009Zm1.388,81.991H11.614V84.919H62.706v4.188Zm-6.921-10.47H11.614v-4.19H55.784v4.189Zm21.106-6.28A17.354,17.354,0,1,1,94.1,55.007,17.3,17.3,0,0,1,76.89,72.358Zm0-30.518A13.165,13.165,0,1,0,89.946,55.007,13.124,13.124,0,0,0,76.89,41.841ZM48.21,68.167h-36.6V63.978h36.6v4.188ZM46.1,57.7H11.614V53.507H46.1V57.7ZM48.21,47.225h-36.6V43.036h36.6v4.188Zm4.553-10.471H11.614V32.565h41.15v4.189ZM39.42,26.284H11.614V22.1H39.42v4.188Z" transform="translate(0 201.708)" fill="#b8e9f4" stroke="rgba(0,0,0,0)" stroke-miterlimit="10" stroke-width="1"/>
    </g>
  </g>
</svg>
