<svg xmlns="http://www.w3.org/2000/svg" width="412.391" height="292" viewBox="0 0 412.391 292">
  <g id="Grupo_1399" data-name="Grupo 1399" transform="translate(-1107.609 -36)">
    <g id="Grupo_883" data-name="Grupo 883" transform="translate(93.755 -353.943)">
      <circle id="Elipse_497" data-name="Elipse 497" cx="146" cy="146" r="146" transform="translate(1076.245 389.943)" fill="#b6eaf5"/>
      <g id="Elipse_513" data-name="Elipse 513" transform="translate(1097.245 410.943)" fill="none" stroke="#273045" stroke-linecap="round" stroke-width="3" stroke-dasharray="6" opacity="0.5">
        <circle cx="125" cy="125" r="125" stroke="none"/>
        <circle cx="125" cy="125" r="123.5" fill="none"/>
      </g>
    </g>
    <g id="Grupo_870" data-name="Grupo 870" transform="translate(1109.609 55.285)">
      <g id="Grupo_882" data-name="Grupo 882" transform="translate(0 0)">
        <g id="Grupo_881" data-name="Grupo 881">
          <g id="Grupo_879" data-name="Grupo 879">
            <path id="Trazado_11133" data-name="Trazado 11133" d="M580.288,2658.229c0,10.115-1.335,16.183-12.137,16.183-3.722,0-6.311-.727-8.092-2.1-3.479-2.553-4.046-7.448-4.046-14.082,0-12.137,6.069-20.229,12.137-20.229S580.288,2646.091,580.288,2658.229Z" transform="translate(-503.418 -2625.862)" fill="#fff"/>
            <path id="Trazado_11134" data-name="Trazado 11134" d="M508.654,2660.447c1.78,1.375,4.37,2.1,8.091,2.1,10.8,0,12.137-6.069,12.137-16.183,0-12.137-6.069-20.229-12.137-20.229s-12.137,8.092-12.137,20.229C504.608,2653,505.175,2657.895,508.654,2660.447Zm72.824,111.338-16.183,4.046c-5.825-18.368-16.183-64.732-16.183-64.732v145.647H528.883l-12.137-68.778-12.137,68.778H484.379V2711.1s-10.357,46.364-16.183,64.732l-16.183-4.046c5.057-46.123,12.258-77.557,16.183-84.961,5.381-10.114,20.229-14.485,20.229-24.275,0-33.7,10.439-48.549,28.32-48.549s28.32,14.848,28.32,48.549c0,9.79,14.848,14.16,20.229,24.275C569.22,2694.228,576.42,2725.662,581.478,2771.785Z" transform="translate(-452.013 -2614)" fill="#5fe0ed"/>
          </g>
          <g id="Grupo_880" data-name="Grupo 880">
            <path id="Trazado_11135" data-name="Trazado 11135" d="M516.745,2614c17.882,0,28.32,14.848,28.32,48.549,0,9.79,14.848,14.16,20.229,24.275,3.925,7.4,11.126,38.838,16.183,84.961l-16.183,4.046c-5.825-18.368-16.183-64.732-16.183-64.732v145.647H528.883l-12.137-68.778-12.137,68.778H484.379V2711.1s-10.357,46.364-16.183,64.732l-16.183-4.046c5.057-46.123,12.258-77.557,16.183-84.961,5.381-10.114,20.229-14.485,20.229-24.275C488.425,2628.847,498.863,2614,516.745,2614Z" transform="translate(-452.013 -2614)" fill="none" stroke="#303e58" stroke-linecap="round" stroke-linejoin="round" stroke-width="4"/>
            <path id="Trazado_11136" data-name="Trazado 11136" d="M568.15,2638c6.069,0,12.137,8.092,12.137,20.229,0,10.115-1.335,16.183-12.137,16.183-3.722,0-6.311-.727-8.092-2.1-3.479-2.553-4.046-7.448-4.046-14.082C556.013,2646.091,562.082,2638,568.15,2638Z" transform="translate(-503.418 -2625.862)" fill="none" stroke="#303e58" stroke-linecap="round" stroke-linejoin="round" stroke-width="4"/>
            <line id="Línea_1" data-name="Línea 1" y1="103.246" transform="translate(56.641 46.447)" fill="none" stroke="#303e58" stroke-linecap="round" stroke-linejoin="round" stroke-width="4"/>
          </g>
        </g>
      </g>
    </g>
    <g id="Grupo_871" data-name="Grupo 871" transform="translate(1370.526 102.649)">
      <g id="Grupo_877" data-name="Grupo 877">
        <g id="Grupo_876" data-name="Grupo 876">
          <g id="Grupo_874" data-name="Grupo 874">
            <path id="Trazado_11122" data-name="Trazado 11122" d="M1406.65,2701.143c-2.011-2.615-2.245-12.87-1.842-23.461h-.034c-6.033,27.716-15.15,48.632-20.043,50.71l-16.557-4.157a500.736,500.736,0,0,1,11.049-56.678c4.719-18.269,9.083-29.919,10.67-33.447,5.06-11.263,30.165-20.11,30.165-20.11a33.485,33.485,0,0,0,40.22,0s25.1,8.847,30.165,20.11c2.849,6.333,14.647,38.846,21.719,90.125l-16.557,4.157c-4.893-2.079-14.011-22.994-20.043-50.71h-.034c.4,10.592.168,20.846-1.843,23.461,0,7.106,10.055,15.652,10.055,113.957H1396.6C1396.6,2716.8,1406.65,2708.249,1406.65,2701.143Z" transform="translate(-1366.43 -2614)" fill="#5fe0ed"/>
            <path id="Trazado_11123" data-name="Trazado 11123" d="M1382.313,2881.274l-4.893,12.971-13.407-3.352c.537-4.726,1.107-9.351,1.743-13.777Z" transform="translate(-1364.013 -2766.882)" fill="#fff"/>
            <path id="Trazado_11124" data-name="Trazado 11124" d="M1690.634,2890.894l-13.407,3.352-4.893-12.971,16.557-4.157C1689.528,2881.542,1690.1,2886.167,1690.634,2890.894Z" transform="translate(-1543.16 -2766.882)" fill="#fff"/>
          </g>
          <g id="Grupo_875" data-name="Grupo 875">
            <path id="Trazado_11125" data-name="Trazado 11125" d="M1588.013,2614s25.1,8.847,30.165,20.11c2.849,6.333,14.647,38.846,21.719,90.125.637,4.426,1.206,9.051,1.743,13.777l-13.407,3.352-4.893-12.971c-4.893-2.079-14.011-22.994-20.043-50.71" transform="translate(-1494.166 -2614)" fill="none" stroke="#303e58" stroke-linecap="round" stroke-linejoin="round" stroke-width="4"/>
            <path id="Trazado_11126" data-name="Trazado 11126" d="M1417.64,2614s-25.1,8.847-30.165,20.11c-2.849,6.333-14.647,38.846-21.719,90.125-.636,4.426-1.206,9.051-1.743,13.777l13.407,3.352,4.893-12.971c4.894-2.079,14.01-22.994,20.043-50.71" transform="translate(-1364.013 -2614)" fill="none" stroke="#303e58" stroke-linecap="round" stroke-linejoin="round" stroke-width="4"/>
            <path id="Trazado_11127" data-name="Trazado 11127" d="M1513.1,2702s1.408,13.643,1.843,26.813c.4,10.592.169,20.846-1.843,23.461,0,7.106,10.055,15.652,10.055,113.957h-87.143c0-98.3,10.055-106.851,10.055-113.957-2.011-2.615-2.245-12.87-1.843-23.461.435-13.171,1.843-26.813,1.843-26.813" transform="translate(-1405.848 -2665.132)" fill="none" stroke="#303e58" stroke-linecap="round" stroke-linejoin="round" stroke-width="4"/>
            <path id="Trazado_11128" data-name="Trazado 11128" d="M1672.333,2881.274l16.557-4.157h.067" transform="translate(-1543.16 -2766.882)" fill="none" stroke="#303e58" stroke-linecap="round" stroke-linejoin="round" stroke-width="4"/>
            <path id="Trazado_11129" data-name="Trazado 11129" d="M1384.637,2881.274l-16.557-4.157h-.067" transform="translate(-1366.337 -2766.882)" fill="none" stroke="#303e58" stroke-linecap="round" stroke-linejoin="round" stroke-width="4"/>
            <path id="Trazado_11130" data-name="Trazado 11130" d="M1492.013,2614a33.485,33.485,0,0,0,40.22,0" transform="translate(-1438.386 -2614)" fill="none" stroke="#303e58" stroke-linecap="round" stroke-linejoin="round" stroke-width="4"/>
            <path id="Trazado_11131" data-name="Trazado 11131" d="M1515.294,2825.018a169.076,169.076,0,0,0,43.873-3.018" transform="translate(-1451.913 -2734.857)" fill="none" stroke="#303e58" stroke-linecap="round" stroke-linejoin="round" stroke-width="4"/>
            <path id="Trazado_11132" data-name="Trazado 11132" d="M1460.013,2822c2.581.537,5.162.972,7.743,1.375" transform="translate(-1419.793 -2734.857)" fill="none" stroke="#303e58" stroke-linecap="round" stroke-linejoin="round" stroke-width="4"/>
          </g>
        </g>
      </g>
    </g>
    <circle id="Elipse_549" data-name="Elipse 549" cx="54.5" cy="54.5" r="54.5" transform="translate(1255 149)" fill="#e3f9fd"/>
    <g id="Grupo_915" data-name="Grupo 915" transform="translate(1226.389 154.699)">
      <g id="Grupo_913" data-name="Grupo 913" transform="translate(54.611 16.959)">
        <g id="Grupo_912" data-name="Grupo 912">
          <g id="Grupo_900" data-name="Grupo 900" transform="translate(31.139 17.517)">
            <g id="Grupo_899" data-name="Grupo 899">
              <g id="Grupo_898" data-name="Grupo 898">
                <g id="Grupo_897" data-name="Grupo 897">
                  <g id="Grupo_896" data-name="Grupo 896">
                    <g id="Grupo_895" data-name="Grupo 895">
                      <g id="Grupo_893" data-name="Grupo 893" transform="translate(10.124 28.878)">
                        <g id="Grupo_892" data-name="Grupo 892">
                          <g id="Grupo_891" data-name="Grupo 891">
                            <g id="Grupo_890" data-name="Grupo 890">
                              <g id="Grupo_889" data-name="Grupo 889">
                                <g id="Grupo_887" data-name="Grupo 887" transform="translate(1.581)">
                                  <path id="Trazado_11157" data-name="Trazado 11157" d="M79.591,44.151H71.529V35.279h2.532v6.34h3v-6.34h2.532Z" transform="translate(-71.529 -35.279)" fill="#273045"/>
                                </g>
                                <g id="Grupo_888" data-name="Grupo 888" transform="translate(0 6.34)">
                                  <path id="Trazado_11158" data-name="Trazado 11158" d="M82.129,48.411H79.6v-8.1H73.437v8.1H70.9V37.783H82.129Z" transform="translate(-70.905 -37.783)" fill="#273045"/>
                                </g>
                              </g>
                            </g>
                          </g>
                        </g>
                      </g>
                      <g id="Grupo_894" data-name="Grupo 894">
                        <path id="Trazado_11159" data-name="Trazado 11159" d="M82.643,55.349A15.736,15.736,0,1,1,98.38,39.612,15.754,15.754,0,0,1,82.643,55.349Zm0-28.94a13.2,13.2,0,1,0,13.2,13.2A13.219,13.219,0,0,0,82.643,26.408Z" transform="translate(-66.907 -23.876)" fill="#273045"/>
                      </g>
                    </g>
                  </g>
                </g>
              </g>
            </g>
          </g>
          <g id="Grupo_911" data-name="Grupo 911">
            <g id="Grupo_903" data-name="Grupo 903">
              <g id="Grupo_901" data-name="Grupo 901">
                <path id="Trazado_11160" data-name="Trazado 11160" d="M92.838,80.321H54.611V16.959H91.247l11.506,11.4v5.012H100.22V29.412L90.206,19.491H57.143v58.3h35.7Z" transform="translate(-54.611 -16.959)" fill="#273045"/>
              </g>
              <g id="Grupo_902" data-name="Grupo 902" transform="translate(34.849 1.266)">
                <path id="Trazado_11161" data-name="Trazado 11161" d="M80.4,29.484H68.372V17.459H70.9v9.493H80.4Z" transform="translate(-68.372 -17.459)" fill="#273045"/>
              </g>
            </g>
            <g id="Grupo_904" data-name="Grupo 904" transform="translate(7.08 51.336)">
              <rect id="Rectángulo_9" data-name="Rectángulo 9" width="31.147" height="2.532" fill="#273045"/>
            </g>
            <g id="Grupo_905" data-name="Grupo 905" transform="translate(7.08 45.006)">
              <rect id="Rectángulo_10" data-name="Rectángulo 10" width="26.928" height="2.532" fill="#273045"/>
            </g>
            <g id="Grupo_906" data-name="Grupo 906" transform="translate(7.08 38.676)">
              <rect id="Rectángulo_11" data-name="Rectángulo 11" width="22.311" height="2.532" fill="#273045"/>
            </g>
            <g id="Grupo_907" data-name="Grupo 907" transform="translate(7.08 32.346)">
              <rect id="Rectángulo_12" data-name="Rectángulo 12" width="21.024" height="2.532" fill="#273045"/>
            </g>
            <g id="Grupo_908" data-name="Grupo 908" transform="translate(7.08 26.017)">
              <rect id="Rectángulo_13" data-name="Rectángulo 13" width="22.311" height="2.532" fill="#273045"/>
            </g>
            <g id="Grupo_909" data-name="Grupo 909" transform="translate(7.08 19.687)">
              <rect id="Rectángulo_14" data-name="Rectángulo 14" width="25.087" height="2.532" fill="#273045"/>
            </g>
            <g id="Grupo_910" data-name="Grupo 910" transform="translate(7.08 13.357)">
              <rect id="Rectángulo_15" data-name="Rectángulo 15" width="16.952" height="2.532" fill="#273045"/>
            </g>
          </g>
        </g>
      </g>
      <g id="Grupo_914" data-name="Grupo 914" transform="translate(90.997 39.72)">
        <path id="Trazado_11162" data-name="Trazado 11162" d="M79.468,46.928A10.491,10.491,0,1,1,89.96,36.439,10.5,10.5,0,0,1,79.468,46.928Zm0-18.449a7.958,7.958,0,1,0,7.959,7.959A7.966,7.966,0,0,0,79.468,28.479Z" transform="translate(-68.979 -25.947)" fill="#273045"/>
      </g>
    </g>
    <g id="Grupo_1395" data-name="Grupo 1395" transform="translate(1307.625 41.355)">
      <g id="Grupo_1016" data-name="Grupo 1016" transform="translate(38.542 0)">
        <path id="Trazado_11403" data-name="Trazado 11403" d="M4694.353,697.5l-.005-1.016c0-1.065-.533-1.927-1.191-1.927h-5.308c-.658,0-1.191.863-1.191,1.927l0,1.016" transform="translate(-4685.873 -693.769)" fill="#99f8ff"/>
        <path id="Trazado_11404" data-name="Trazado 11404" d="M4690.169,694.1a.786.786,0,0,1-.786-.781l-.005-1.016a1.365,1.365,0,0,0-.413-1.147h-5.3a1.39,1.39,0,0,0-.405,1.142l0,1.013a.785.785,0,1,1-1.571.006l0-1.016c0-1.524.868-2.716,1.977-2.716h5.308c1.108,0,1.977,1.192,1.977,2.713l.005,1.011a.786.786,0,0,1-.782.79Z" transform="translate(-4681.689 -689.585)" fill="#273045"/>
      </g>
      <g id="Grupo_1017" data-name="Grupo 1017" transform="translate(34.046 52.057)">
        <path id="Trazado_11405" data-name="Trazado 11405" d="M4674.923,1023.811v.389a3.574,3.574,0,0,1-2.527,3.683,27.679,27.679,0,0,1-5.792.522,28.486,28.486,0,0,1-5.861-.522,3.575,3.575,0,0,1-2.527-3.683v-.389" transform="translate(-4657.43 -1023.025)" fill="#99f8ff"/>
        <path id="Trazado_11406" data-name="Trazado 11406" d="M4662.421,1025.008a29.084,29.084,0,0,1-6.013-.537,4.335,4.335,0,0,1-3.162-4.454v-.389a.786.786,0,0,1,1.571,0v.389a2.822,2.822,0,0,0,1.892,2.912,27.612,27.612,0,0,0,5.711.508,26.817,26.817,0,0,0,5.641-.508,2.822,2.822,0,0,0,1.891-2.912v-.389a.786.786,0,0,1,1.571,0v.389a4.335,4.335,0,0,1-3.162,4.454A28.257,28.257,0,0,1,4662.421,1025.008Z" transform="translate(-4653.247 -1018.842)" fill="#273045"/>
      </g>
      <g id="Grupo_1018" data-name="Grupo 1018" transform="translate(8.173 0)">
        <path id="Trazado_11407" data-name="Trazado 11407" d="M4502.264,697.5l0-1.016c0-1.065-.534-1.927-1.191-1.927h-5.308c-.658,0-1.191.863-1.191,1.927l0,1.016" transform="translate(-4493.783 -693.769)" fill="#99f8ff"/>
        <path id="Trazado_11408" data-name="Trazado 11408" d="M4498.082,694.1a.786.786,0,0,1-.786-.781l-.005-1.016a1.369,1.369,0,0,0-.413-1.147h-5.3a1.387,1.387,0,0,0-.406,1.142l0,1.013a.786.786,0,0,1-.783.789h0a.786.786,0,0,1-.786-.783l0-1.016c0-1.524.869-2.716,1.977-2.716h5.307c1.108,0,1.977,1.192,1.977,2.713l.005,1.011a.786.786,0,0,1-.782.79Z" transform="translate(-4489.601 -689.585)" fill="#273045"/>
      </g>
      <g id="Grupo_1019" data-name="Grupo 1019" transform="translate(3.676 52.057)">
        <path id="Trazado_11409" data-name="Trazado 11409" d="M4482.833,1023.811v.389a3.574,3.574,0,0,1-2.527,3.683,27.681,27.681,0,0,1-5.791.522,28.491,28.491,0,0,1-5.862-.522,3.575,3.575,0,0,1-2.527-3.683v-.389" transform="translate(-4465.341 -1023.025)" fill="#99f8ff"/>
        <path id="Trazado_11410" data-name="Trazado 11410" d="M4470.333,1025.008a29.082,29.082,0,0,1-6.012-.537,4.335,4.335,0,0,1-3.162-4.454v-.389a.786.786,0,0,1,1.571,0v.389a2.822,2.822,0,0,0,1.892,2.912,27.612,27.612,0,0,0,5.711.508,26.8,26.8,0,0,0,5.641-.508,2.822,2.822,0,0,0,1.892-2.912v-.389a.786.786,0,0,1,1.572,0v.389a4.336,4.336,0,0,1-3.163,4.454A28.257,28.257,0,0,1,4470.333,1025.008Z" transform="translate(-4461.158 -1018.842)" fill="#273045"/>
      </g>
      <g id="Grupo_1020" data-name="Grupo 1020" transform="translate(0 2.955)">
        <path id="Trazado_11411" data-name="Trazado 11411" d="M4454.824,763.783a25.188,25.188,0,0,1-9.751-1.965c-.077-.031-.145-.087-.222-.124a2.968,2.968,0,0,1-1.967-3.176l2.007-41.737c.1-1.986,1.419-3.536,3.02-3.536h13.9c1.6,0,2.925,1.55,3.021,3.536l2.007,41.737a3.24,3.24,0,0,1-1.966,3.176,2.268,2.268,0,0,1-.221.124,25.194,25.194,0,0,1-9.752,1.965" transform="translate(-4442.092 -712.46)" fill="#fff"/>
        <path id="Trazado_11412" data-name="Trazado 11412" d="M4450.712,760.385h-.07a25.8,25.8,0,0,1-10.045-2.022,1.487,1.487,0,0,1-.245-.129l-.032-.02a3.734,3.734,0,0,1-2.4-3.918l2.007-41.737c.116-2.4,1.788-4.284,3.805-4.284h13.9c2.018,0,3.689,1.882,3.8,4.284l2.007,41.737a3.988,3.988,0,0,1-2.374,3.9c-.016.008-.03.018-.045.027a1.725,1.725,0,0,1-.261.136A25.808,25.808,0,0,1,4450.712,760.385Zm-9.506-3.471a24.306,24.306,0,0,0,9.437,1.9h.07a24.306,24.306,0,0,0,9.445-1.9l.039-.023c.037-.023.075-.045.113-.066a2.46,2.46,0,0,0,1.559-2.449l-2.007-41.737c-.075-1.563-1.057-2.788-2.235-2.788h-13.9c-1.178,0-2.16,1.225-2.235,2.788l-2.007,41.737a2.213,2.213,0,0,0,1.521,2.429,1.739,1.739,0,0,1,.177.1Zm18.964-.009h0Z" transform="translate(-4437.91 -708.276)" fill="#273045"/>
      </g>
      <g id="Grupo_1021" data-name="Grupo 1021" transform="translate(1.909 8.658)">
        <path id="Trazado_11413" data-name="Trazado 11413" d="M4475.269,752.837h0l-20.311-3.522" transform="translate(-4454.167 -748.53)" fill="#273045"/>
        <path id="Trazado_11414" data-name="Trazado 11414" d="M4471.084,749.439h0a.785.785,0,0,1-.135-.012l-20.311-3.522a.786.786,0,1,1,.269-1.548l20.3,3.52a.786.786,0,0,1-.117,1.562Z" transform="translate(-4449.982 -744.345)" fill="#273045"/>
      </g>
      <g id="Grupo_1022" data-name="Grupo 1022" transform="translate(1.756 12.383)">
        <line id="Línea_2" data-name="Línea 2" x2="20.579" y2="3.685" transform="translate(0.786 0.786)" fill="#fff"/>
        <path id="Trazado_11415" data-name="Trazado 11415" d="M4470.382,773.163a.791.791,0,0,1-.14-.012l-20.579-3.685a.786.786,0,1,1,.277-1.547l20.579,3.685a.786.786,0,0,1-.138,1.559Z" transform="translate(-4449.016 -767.906)" fill="#273045"/>
      </g>
      <g id="Grupo_1023" data-name="Grupo 1023" transform="translate(1.56 16.125)">
        <line id="Línea_3" data-name="Línea 3" x2="21.038" y2="3.652" transform="translate(0.786 0.786)" fill="#fff"/>
        <path id="Trazado_11416" data-name="Trazado 11416" d="M4469.6,796.8a.781.781,0,0,1-.135-.012l-21.038-3.652a.786.786,0,0,1,.269-1.548l21.038,3.652a.786.786,0,0,1-.133,1.56Z" transform="translate(-4447.778 -791.572)" fill="#273045"/>
      </g>
      <g id="Grupo_1024" data-name="Grupo 1024" transform="translate(0.55 36.998)">
        <line id="Línea_4" data-name="Línea 4" x2="23.083" y2="4.485" transform="translate(0.786 0.786)" fill="#fff"/>
        <path id="Trazado_11417" data-name="Trazado 11417" d="M4465.259,929.652a.779.779,0,0,1-.15-.015l-23.083-4.485a.786.786,0,1,1,.3-1.542l23.083,4.485a.786.786,0,0,1-.149,1.557Z" transform="translate(-4441.39 -923.596)" fill="#273045"/>
      </g>
      <g id="Grupo_1025" data-name="Grupo 1025" transform="translate(0.334 41.359)">
        <line id="Línea_5" data-name="Línea 5" x1="23.481" y1="4.642" transform="translate(0.786 0.786)" fill="#fff"/>
        <path id="Trazado_11418" data-name="Trazado 11418" d="M4464.29,957.389a.781.781,0,0,1-.153-.015l-23.481-4.641a.786.786,0,1,1,.3-1.541l23.481,4.641a.786.786,0,0,1-.152,1.557Z" transform="translate(-4440.021 -951.176)" fill="#273045"/>
      </g>
      <g id="Grupo_1026" data-name="Grupo 1026" transform="translate(8.121 7.889)">
        <path id="Trazado_11419" data-name="Trazado 11419" d="M4508.112,744.454c-.383.1-13.867,1.814-13.867,1.814" transform="translate(-4493.459 -743.668)" fill="#273045"/>
        <path id="Trazado_11420" data-name="Trazado 11420" d="M4490.06,742.869a.786.786,0,0,1-.1-1.565c5.272-.672,13.277-1.7,13.793-1.8a.786.786,0,0,1,.364,1.528c-.386.1-9.89,1.313-13.958,1.831A.79.79,0,0,1,4490.06,742.869Z" transform="translate(-4489.275 -739.484)" fill="#273045"/>
      </g>
      <g id="Grupo_1027" data-name="Grupo 1027" transform="translate(1.325 18.177)">
        <line id="Línea_6" data-name="Línea 6" x1="12.094" y2="2.523" transform="translate(0.786 0.786)" fill="#fff"/>
        <path id="Trazado_11421" data-name="Trazado 11421" d="M4447.076,808.65a.786.786,0,0,1-.159-1.555l12.094-2.523a.786.786,0,1,1,.321,1.538l-12.094,2.523A.8.8,0,0,1,4447.076,808.65Z" transform="translate(-4446.291 -804.556)" fill="#273045"/>
      </g>
      <g id="Grupo_1028" data-name="Grupo 1028" transform="translate(0.171 45.077)">
        <line id="Línea_7" data-name="Línea 7" x1="18.944" y2="4.336" transform="translate(0.786 0.786)" fill="#fff"/>
        <path id="Trazado_11422" data-name="Trazado 11422" d="M4439.777,980.6a.786.786,0,0,1-.174-1.552l18.944-4.336a.786.786,0,0,1,.351,1.532l-18.944,4.336A.8.8,0,0,1,4439.777,980.6Z" transform="translate(-4438.992 -974.692)" fill="#273045"/>
      </g>
      <g id="Grupo_1029" data-name="Grupo 1029" transform="translate(1.086 20.519)">
        <line id="Línea_8" data-name="Línea 8" x1="21.488" y2="5.36" transform="translate(0.786 0.786)" fill="#fff"/>
        <path id="Trazado_11423" data-name="Trazado 11423" d="M4445.564,826.3a.786.786,0,0,1-.189-1.548l21.488-5.36a.786.786,0,0,1,.38,1.524l-21.488,5.36A.786.786,0,0,1,4445.564,826.3Z" transform="translate(-4444.779 -819.366)" fill="#273045"/>
      </g>
      <g id="Grupo_1030" data-name="Grupo 1030" transform="translate(0.913 24.539)">
        <line id="Línea_9" data-name="Línea 9" x1="21.852" y2="5.501" transform="translate(0.786 0.786)" fill="#fff"/>
        <path id="Trazado_11424" data-name="Trazado 11424" d="M4444.471,851.863a.786.786,0,0,1-.191-1.548l21.853-5.5a.786.786,0,1,1,.383,1.524l-21.852,5.5A.787.787,0,0,1,4444.471,851.863Z" transform="translate(-4443.686 -844.79)" fill="#273045"/>
      </g>
      <g id="Grupo_1031" data-name="Grupo 1031" transform="translate(0.732 28.415)">
        <line id="Línea_10" data-name="Línea 10" x1="22.273" y2="5.582" transform="translate(0.786 0.786)" fill="#fff"/>
        <path id="Trazado_11425" data-name="Trazado 11425" d="M4443.323,876.463a.786.786,0,0,1-.19-1.548l22.273-5.582a.786.786,0,1,1,.382,1.524l-22.273,5.582A.776.776,0,0,1,4443.323,876.463Z" transform="translate(-4442.538 -869.309)" fill="#273045"/>
      </g>
      <g id="Grupo_1032" data-name="Grupo 1032" transform="translate(2.809 33.488)">
        <line id="Línea_11" data-name="Línea 11" x2="20.579" y2="3.876" transform="translate(0.786 0.786)" fill="#fff"/>
        <path id="Trazado_11426" data-name="Trazado 11426" d="M4477.042,906.843a.787.787,0,0,1-.147-.014l-20.578-3.876a.786.786,0,1,1,.291-1.544l20.579,3.876a.786.786,0,0,1-.144,1.558Z" transform="translate(-4455.675 -901.395)" fill="#273045"/>
      </g>
      <g id="Grupo_1033" data-name="Grupo 1033" transform="translate(30.37 2.955)">
        <path id="Trazado_11427" data-name="Trazado 11427" d="M4646.983,763.783a25.19,25.19,0,0,0,9.751-1.965,2.219,2.219,0,0,0,.222-.124,3.24,3.24,0,0,0,1.966-3.176l-2.007-41.737c-.1-1.986-1.419-3.536-3.021-3.536H4640c-1.6,0-2.924,1.55-3.021,3.536l-2.007,41.737a2.967,2.967,0,0,0,1.967,3.176c.077.037.145.093.221.124a25.194,25.194,0,0,0,9.752,1.965" transform="translate(-4634.181 -712.46)" fill="#fff"/>
        <path id="Trazado_11428" data-name="Trazado 11428" d="M4642.8,760.385h-.07a25.8,25.8,0,0,1-10.045-2.022,1.484,1.484,0,0,1-.245-.129l-.032-.02a3.733,3.733,0,0,1-2.4-3.918l2.006-41.737c.116-2.4,1.788-4.284,3.806-4.284h13.895c2.018,0,3.689,1.882,3.805,4.284l2.007,41.737a3.988,3.988,0,0,1-2.374,3.9c-.016.008-.031.018-.045.027a1.725,1.725,0,0,1-.261.136A25.808,25.808,0,0,1,4642.8,760.385Zm-9.507-3.471a24.315,24.315,0,0,0,9.437,1.9h.07a24.311,24.311,0,0,0,9.445-1.9l.039-.023c.037-.023.074-.045.112-.066a2.46,2.46,0,0,0,1.559-2.449l-2.007-41.737c-.076-1.563-1.057-2.788-2.236-2.788h-13.895c-1.178,0-2.16,1.225-2.236,2.788l-2.007,41.737a2.213,2.213,0,0,0,1.521,2.429,1.823,1.823,0,0,1,.177.1Zm18.965-.009h0Z" transform="translate(-4630 -708.276)" fill="#273045"/>
      </g>
      <g id="Grupo_1034" data-name="Grupo 1034" transform="translate(32.279 8.658)">
        <path id="Trazado_11429" data-name="Trazado 11429" d="M4667.357,752.837h0l-20.311-3.522" transform="translate(-4646.256 -748.53)" fill="#273045"/>
        <path id="Trazado_11430" data-name="Trazado 11430" d="M4663.173,749.439h0a.785.785,0,0,1-.135-.012l-20.311-3.522a.786.786,0,1,1,.269-1.548l20.3,3.52a.786.786,0,0,1-.116,1.562Z" transform="translate(-4642.071 -744.345)" fill="#273045"/>
      </g>
      <g id="Grupo_1035" data-name="Grupo 1035" transform="translate(32.126 12.383)">
        <line id="Línea_12" data-name="Línea 12" x2="20.579" y2="3.685" transform="translate(0.786 0.786)" fill="#fff"/>
        <path id="Trazado_11431" data-name="Trazado 11431" d="M4662.471,773.163a.791.791,0,0,1-.14-.012l-20.578-3.685a.786.786,0,1,1,.277-1.547l20.579,3.685a.786.786,0,0,1-.138,1.559Z" transform="translate(-4641.105 -767.906)" fill="#273045"/>
      </g>
      <g id="Grupo_1036" data-name="Grupo 1036" transform="translate(31.931 16.124)">
        <path id="Trazado_11432" data-name="Trazado 11432" d="M4665.867,800.2l-9.184-1.595-11.843-2.058" transform="translate(-4644.054 -795.757)" fill="#273045"/>
        <path id="Trazado_11433" data-name="Trazado 11433" d="M4661.685,796.8a.8.8,0,0,1-.136-.012l-21.028-3.652a.786.786,0,1,1,.269-1.548l21.027,3.652a.786.786,0,0,1-.133,1.56Z" transform="translate(-4639.87 -791.571)" fill="#273045"/>
      </g>
      <g id="Grupo_1037" data-name="Grupo 1037" transform="translate(30.92 36.998)">
        <line id="Línea_13" data-name="Línea 13" x2="23.083" y2="4.485" transform="translate(0.786 0.786)" fill="#fff"/>
        <path id="Trazado_11434" data-name="Trazado 11434" d="M4657.348,929.652a.779.779,0,0,1-.15-.015l-23.083-4.485a.786.786,0,1,1,.3-1.542l23.083,4.485a.786.786,0,0,1-.149,1.557Z" transform="translate(-4633.479 -923.596)" fill="#273045"/>
      </g>
      <g id="Grupo_1038" data-name="Grupo 1038" transform="translate(30.704 41.359)">
        <line id="Línea_14" data-name="Línea 14" x1="23.481" y1="4.642" transform="translate(0.786 0.786)" fill="#fff"/>
        <path id="Trazado_11435" data-name="Trazado 11435" d="M4656.378,957.389a.781.781,0,0,1-.153-.015l-23.481-4.641a.786.786,0,1,1,.3-1.541l23.481,4.641a.786.786,0,0,1-.152,1.557Z" transform="translate(-4632.11 -951.176)" fill="#273045"/>
      </g>
      <g id="Grupo_1039" data-name="Grupo 1039" transform="translate(38.491 7.889)">
        <path id="Trazado_11436" data-name="Trazado 11436" d="M4700.2,744.454c-.383.1-13.867,1.814-13.867,1.814" transform="translate(-4685.548 -743.668)" fill="#273045"/>
        <path id="Trazado_11437" data-name="Trazado 11437" d="M4682.148,742.869a.786.786,0,0,1-.1-1.565c5.272-.672,13.278-1.7,13.793-1.8a.786.786,0,0,1,.363,1.529c-.386.1-9.89,1.313-13.958,1.831A.813.813,0,0,1,4682.148,742.869Z" transform="translate(-4681.364 -739.484)" fill="#273045"/>
      </g>
      <g id="Grupo_1040" data-name="Grupo 1040" transform="translate(31.695 18.177)">
        <line id="Línea_15" data-name="Línea 15" x1="12.094" y2="2.523" transform="translate(0.786 0.786)" fill="#fff"/>
        <path id="Trazado_11438" data-name="Trazado 11438" d="M4639.165,808.65a.786.786,0,0,1-.16-1.555l12.094-2.523a.786.786,0,0,1,.32,1.538l-12.094,2.523A.789.789,0,0,1,4639.165,808.65Z" transform="translate(-4638.38 -804.556)" fill="#273045"/>
      </g>
      <g id="Grupo_1041" data-name="Grupo 1041" transform="translate(30.541 45.077)">
        <line id="Línea_16" data-name="Línea 16" x1="18.944" y2="4.336" transform="translate(0.786 0.786)" fill="#fff"/>
        <path id="Trazado_11439" data-name="Trazado 11439" d="M4631.866,980.6a.786.786,0,0,1-.175-1.552l18.945-4.336a.786.786,0,0,1,.35,1.532l-18.944,4.336A.787.787,0,0,1,4631.866,980.6Z" transform="translate(-4631.081 -974.692)" fill="#273045"/>
      </g>
      <g id="Grupo_1042" data-name="Grupo 1042" transform="translate(31.456 20.519)">
        <line id="Línea_17" data-name="Línea 17" x1="21.488" y2="5.36" transform="translate(0.786 0.786)" fill="#fff"/>
        <path id="Trazado_11440" data-name="Trazado 11440" d="M4637.652,826.3a.786.786,0,0,1-.19-1.548l21.488-5.36a.786.786,0,1,1,.381,1.524l-21.488,5.36A.786.786,0,0,1,4637.652,826.3Z" transform="translate(-4636.867 -819.366)" fill="#273045"/>
      </g>
      <g id="Grupo_1043" data-name="Grupo 1043" transform="translate(31.283 24.539)">
        <line id="Línea_18" data-name="Línea 18" x1="21.852" y2="5.501" transform="translate(0.786 0.786)" fill="#fff"/>
        <path id="Trazado_11441" data-name="Trazado 11441" d="M4636.56,851.863a.786.786,0,0,1-.191-1.548l21.853-5.5a.786.786,0,0,1,.383,1.524l-21.852,5.5A.787.787,0,0,1,4636.56,851.863Z" transform="translate(-4635.774 -844.79)" fill="#273045"/>
      </g>
      <g id="Grupo_1044" data-name="Grupo 1044" transform="translate(31.102 28.415)">
        <line id="Línea_19" data-name="Línea 19" x1="22.273" y2="5.582" transform="translate(0.786 0.786)" fill="#fff"/>
        <path id="Trazado_11442" data-name="Trazado 11442" d="M4635.411,876.463a.786.786,0,0,1-.19-1.548l22.273-5.582a.786.786,0,0,1,.382,1.524l-22.273,5.582A.783.783,0,0,1,4635.411,876.463Z" transform="translate(-4634.626 -869.309)" fill="#273045"/>
      </g>
      <g id="Grupo_1045" data-name="Grupo 1045" transform="translate(33.179 33.488)">
        <line id="Línea_20" data-name="Línea 20" x2="20.579" y2="3.876" transform="translate(0.786 0.786)" fill="#fff"/>
        <path id="Trazado_11443" data-name="Trazado 11443" d="M4669.13,906.843a.773.773,0,0,1-.146-.014l-20.579-3.876a.786.786,0,0,1,.291-1.544l20.579,3.876a.786.786,0,0,1-.145,1.558Z" transform="translate(-4647.765 -901.395)" fill="#273045"/>
      </g>
    </g>
    <g id="Grupo_1396" data-name="Grupo 1396" transform="translate(1359 86.313) rotate(90)">
      <g id="Grupo_1075" data-name="Grupo 1075" transform="translate(0 0.905)">
        <path id="Trazado_11476" data-name="Trazado 11476" d="M4210,833.378l-2.926,19.127a87.538,87.538,0,0,0-1.007,13.24V898.9a4.664,4.664,0,0,1-4.664,4.664h-4.633a13.9,13.9,0,0,0-13.9,13.9v10.479a13.9,13.9,0,0,0,13.9,13.9h0a13.9,13.9,0,0,0,13.9-13.9V880.073l4.6-4.234V865.745a87.6,87.6,0,0,0-1.007-13.24l-2.926-19.127A.677.677,0,0,0,4210,833.378Zm-3.933,94.146a9.481,9.481,0,0,1-9.48,9.481h0a9.48,9.48,0,0,1-9.48-9.481v-9.88a9.48,9.48,0,0,1,9.48-9.481h0a9.481,9.481,0,0,1,9.48,9.481Z" transform="translate(-4181.843 -831.773)" fill="#fff"/>
        <path id="Trazado_11477" data-name="Trazado 11477" d="M4192.833,938.93A14.946,14.946,0,0,1,4177.9,924V913.522a14.946,14.946,0,0,1,14.929-14.929h4.632a3.637,3.637,0,0,0,3.633-3.633V861.807a88.893,88.893,0,0,1,1.019-13.4l2.926-19.127h0a1.708,1.708,0,0,1,3.376,0l2.926,19.127a88.893,88.893,0,0,1,1.019,13.4V871.9a1.03,1.03,0,0,1-.333.758l-4.27,3.928V924A14.946,14.946,0,0,1,4192.833,938.93Zm0-38.276a12.883,12.883,0,0,0-12.868,12.868V924a12.868,12.868,0,0,0,25.736,0V876.135a1.031,1.031,0,0,1,.333-.758l4.27-3.928v-9.642a86.877,86.877,0,0,0-.995-13.084l-2.577-16.842-2.577,16.842a86.814,86.814,0,0,0-1,13.084V894.96a5.7,5.7,0,0,1-5.694,5.694Zm-.184,33.443a10.524,10.524,0,0,1-10.512-10.511v-9.88a10.511,10.511,0,0,1,21.022,0v9.88A10.523,10.523,0,0,1,4192.649,934.1Zm0-28.841a8.46,8.46,0,0,0-8.45,8.45v9.88a8.45,8.45,0,1,0,16.9,0v-9.88A8.459,8.459,0,0,0,4192.649,905.256Z" transform="translate(-4177.904 -827.835)" fill="#273045"/>
      </g>
      <g id="Grupo_1078" data-name="Grupo 1078" transform="translate(22.898 0)">
        <g id="Grupo_1076" data-name="Grupo 1076">
          <path id="Trazado_11478" data-name="Trazado 11478" d="M4312.085,900.1h-4.633a4.664,4.664,0,0,1-4.664-4.664V862.285c0-4.432.54-8.858-.13-13.24l-3.816-20.056a.677.677,0,0,0-1.33,0l-3.928,20.06c-.67,4.382,0,8.808,0,13.24v10.094l4.6,4.234v47.866a13.9,13.9,0,0,0,13.9,13.9h0a13.9,13.9,0,0,0,13.9-13.9V914A13.9,13.9,0,0,0,4312.085,900.1Zm9.664,23.962a9.48,9.48,0,0,1-9.48,9.481h0a9.481,9.481,0,0,1-9.481-9.481v-9.88a9.481,9.481,0,0,1,9.481-9.481h0a9.48,9.48,0,0,1,9.48,9.481Z" transform="translate(-4292.256 -827.408)" fill="#fff"/>
          <path id="Trazado_11479" data-name="Trazado 11479" d="M4308.149,935.47a14.946,14.946,0,0,1-14.929-14.929V873.127l-4.27-3.928a1.029,1.029,0,0,1-.333-.758V858.347c0-1.453-.076-2.943-.148-4.383a44.522,44.522,0,0,1,.16-9.013.416.416,0,0,1,.007-.042l3.928-20.06a1.689,1.689,0,0,1,1.675-1.379h0a1.69,1.69,0,0,1,1.673,1.388l3.816,20.056c0,.012,0,.024.006.037a49.22,49.22,0,0,1,.244,9.329c-.05,1.335-.1,2.717-.1,4.067V891.5a3.637,3.637,0,0,0,3.633,3.633h4.633a14.946,14.946,0,0,1,14.929,14.929v10.479A14.946,14.946,0,0,1,4308.149,935.47Zm-17.471-67.481,4.27,3.928a1.032,1.032,0,0,1,.333.758v47.866a12.868,12.868,0,0,0,25.737,0V910.062a12.883,12.883,0,0,0-12.869-12.868h-4.633a5.7,5.7,0,0,1-5.694-5.694V858.347c0-1.389.053-2.79.1-4.144a47.064,47.064,0,0,0-.219-8.921l-3.471-18.239-3.573,18.242a42.446,42.446,0,0,0-.135,8.576c.074,1.466.15,2.982.15,4.487Zm17.656,62.648a10.523,10.523,0,0,1-10.512-10.511v-9.88a10.511,10.511,0,0,1,21.022,0v9.88A10.523,10.523,0,0,1,4308.333,930.637Zm0-28.841a8.46,8.46,0,0,0-8.451,8.45v9.88a8.45,8.45,0,1,0,16.9,0v-9.88A8.459,8.459,0,0,0,4308.333,901.8Z" transform="translate(-4288.32 -823.47)" fill="#273045"/>
        </g>
        <g id="Grupo_1077" data-name="Grupo 1077" transform="translate(4.899 0.37)">
          <path id="Trazado_11480" data-name="Trazado 11480" d="M4316.915,830.223V859.4c-.059,2.92,1.776,2.831,4.541,3.776" transform="translate(-4315.885 -829.192)" fill="#fff"/>
          <path id="Trazado_11481" data-name="Trazado 11481" d="M4317.518,860.265a1.022,1.022,0,0,1-.333-.056c-.465-.159-.9-.287-1.326-.411-2.042-.6-3.971-1.166-3.912-4.35V826.284a1.031,1.031,0,1,1,2.061,0v29.2c-.032,1.564.4,1.745,2.431,2.341.423.124.9.265,1.413.439a1.031,1.031,0,0,1-.333,2.006Z" transform="translate(-4311.946 -825.253)" fill="#273045"/>
        </g>
      </g>
      <g id="Grupo_1079" data-name="Grupo 1079" transform="translate(25.632 37.027)">
        <circle id="Elipse_566" data-name="Elipse 566" cx="2.165" cy="2.165" r="2.165" transform="translate(1.031 1.03)" fill="#fff"/>
        <path id="Trazado_11482" data-name="Trazado 11482" d="M4304.7,1008.411a3.2,3.2,0,1,1,3.2-3.2A3.2,3.2,0,0,1,4304.7,1008.411Zm0-4.33a1.135,1.135,0,1,0,1.135,1.135A1.136,1.136,0,0,0,4304.7,1004.081Z" transform="translate(-4301.506 -1002.02)" fill="#273045"/>
      </g>
    </g>
  </g>
</svg>
